<?xml version="1.0" encoding="UTF-8"?>
<svg width="160px" height="50px" viewBox="0 0 160 50" version="1.1" xmlns="http://www.w3.org/2000/svg" xmlns:xlink="http://www.w3.org/1999/xlink">
    <!-- Generator: Sketch 55.2 (78181) - https://sketchapp.com -->
    <title>Atom / Spotalike Logo / White</title>
    <desc>Created with Sketch.</desc>
    <g id="Symbols" stroke="none" stroke-width="1" fill="none" fill-rule="evenodd">
        <g id="Organism-/-Navigation-Bar" transform="translate(-108.000000, -14.000000)">
            <g id="Atom-/-Image-/-Spotalike-Logo-/-White" transform="translate(108.000000, 14.000000)">
                <g id="logo-spotalike">
                    <path d="M56.1666667,8.16666667 C49,8.16666667 43,14 43,21.1666667 C43,25 44.6666667,28.5 47.3333333,30.8333333 C49.1666667,32.5 51.5,33.6666667 54.1666667,34 C54.6666667,34.1666667 55,34.1666667 55.3333333,34.1666667 C55.5,34.1666667 55.8333333,34.1666667 56.1666667,34.1666667 C63.5,34.1666667 69.3333333,28.3333333 69.3333333,21.1666667 C69.3333333,14 63.3333333,8.16666667 56.1666667,8.16666667 Z M52.1666667,27.3333333 C52.1666667,27.3333333 52.1666667,14.8333333 52.1666667,15 L63.1666667,21.1666667 L52.1666667,27.3333333 Z" id="Shape"></path>
                    <path d="M93.6666667,22.5 C92.6666667,22.6666667 91.6666667,22.8333333 90.8333333,23.1666667 C90,23.5 89.3333333,24 88.6666667,24.5 C88.1666667,25.1666667 87.8333333,25.8333333 87.6666667,26.6666667 C87.5,27.3333333 87.6666667,27.8333333 87.8333333,28.3333333 C88,28.8333333 88.3333333,29.1666667 88.6666667,29.5 C89,29.8333333 89.5,30 90,30.1666667 C90.6666667,30.3333333 91.1666667,30.3333333 91.6666667,30.3333333 C93,30.3333333 94.1666667,30 95.1666667,29.6666667 C96.1666667,29.3333333 96.8333333,28.8333333 97.5,28.1666667 C98.1666667,27.5 98.6666667,26.8333333 99,26 C99.3333333,25.1666667 99.5,24.3333333 99.6666667,23.5 L99.6666667,22.3333333 L96.8333333,22.3333333 C95.8333333,22.3333333 94.6666667,22.3333333 93.6666667,22.5 Z" id="Path"></path>
                    <path d="M34.1666667,16.1666667 C33.5,15.8333333 32.6666667,15.6666667 31.6666667,15.6666667 C30.6666667,15.6666667 29.8333333,15.8333333 29,16.1666667 C28.1666667,16.5 27.5,17 26.8333333,17.5 C26.1666667,18.1666667 25.6666667,18.8333333 25.3333333,19.5 C24.8333333,20.3333333 24.6666667,21 24.5,21.8333333 C24.5,22.6666667 24.5,23.5 24.6666667,24.1666667 C24.8333333,25 25.3333333,25.6666667 25.6666667,26.1666667 C26,26.6666667 26.6666667,27.1666667 27.3333333,27.5 C28,27.8333333 28.8333333,28 29.8333333,28 C30.8333333,28 31.6666667,27.8333333 32.5,27.5 C33.3333333,27.1666667 34,26.6666667 34.6666667,26.1666667 C35.3333333,25.5 35.8333333,24.8333333 36.1666667,24.1666667 C36.5,23.3333333 36.6666667,22.6666667 36.8333333,21.8333333 C36.8333333,21 36.8333333,20.1666667 36.8333333,19.5 C36.6666667,18.6666667 36.3333333,18 35.8333333,17.5 C35.5,17 34.8333333,16.5 34.1666667,16.1666667 Z" id="Path"></path>
                    <path d="M157.166667,17.8333333 C157,17.1666667 156.5,16.3333333 156,15.8333333 C155.5,15.3333333 154.833333,14.8333333 154,14.5 C153.166667,14.1666667 152.333333,14 151.333333,14 C149.833333,14 148.666667,14.3333333 147.666667,14.8333333 C146.666667,15.5 145.833333,16.1666667 145.166667,16.8333333 C144.5,17.6666667 144,18.3333333 143.666667,19 C143.333333,19.8333333 143.166667,20.1666667 143.166667,20.5 L157.333333,20.5 C157.5,19.6666667 157.333333,18.8333333 157.166667,17.8333333 Z" id="Path"></path>
                    <path d="M79.6666667,5.66666667 L74.5,7.5 L73.6666667,11.6666667 L72.1666667,11.6666667 C68.8333333,6.33333333 63,2.83333333 56.1666667,2.83333333 C48.6666667,2.83333333 42.3333333,7.16666667 39.3333333,13.3333333 C38.8333333,12.8333333 38.1666667,12.3333333 37.3333333,12 C36.1666667,11.5 34.8333333,11.1666667 33.1666667,11.1666667 C31.6666667,11.1666667 30.3333333,11.5 29,12 C27.6666667,12.5 26.5,13.5 25.6666667,14.6666667 L25.5,14.6666667 L26,11.6666667 L21.1666667,11.6666667 L16.8333333,41.6666667 L22.1666667,41.6666667 L23.8333333,29.5 L24,29.5 C24.1666667,29.8333333 24.5,30.1666667 24.8333333,30.5 C25.1666667,30.8333333 25.6666667,31.1666667 26.1666667,31.5 C26.6666667,31.8333333 27.3333333,32 28,32.3333333 C28.6666667,32.5 29.5,32.6666667 30.5,32.6666667 C32,32.6666667 33.3333333,32.3333333 34.6666667,31.8333333 C36,31.3333333 37.1666667,30.5 38.1666667,29.5 C38.5,29.1666667 38.8333333,28.8333333 39.1666667,28.5 C40.5,31.5 42.6666667,34.1666667 45.3333333,36 L41.5,44.8333333 C41,46 41.5,47.5 42.8333333,48 L46.3333333,49.5 C47.5,50 49,49.5 49.5,48.1666667 L53.3333333,39.1666667 C54.3333333,39.3333333 55.3333333,39.5 56.5,39.5 C63.3333333,39.5 69.1666667,36 72.5,30.6666667 C72.5,30.6666667 72.5,30.6666667 72.5,30.8333333 C72.8333333,31.5 73.5,31.8333333 74.3333333,32.1666667 C75.1666667,32.5 76.3333333,32.6666667 77.6666667,32.6666667 C78.3333333,32.6666667 79,32.6666667 79.8333333,32.5 C80.6666667,32.3333333 81.3333333,32.1666667 81.8333333,32 L82.5,27.6666667 C82.1666667,27.8333333 81.6666667,28 81.1666667,28.1666667 C80.6666667,28.3333333 80.1666667,28.3333333 79.6666667,28.3333333 C78.5,28.3333333 77.8333333,28 77.5,27.5 C77.1666667,27 77.1666667,26.1666667 77.3333333,25.1666667 L78.6666667,16.3333333 L84.3333333,16.3333333 L85,12 L79.3333333,12 L79.6666667,5.66666667 Z M36.8333333,21.8333333 C36.6666667,22.6666667 36.5,23.3333333 36.1666667,24.1666667 C35.8333333,24.8333333 35.3333333,25.5 34.6666667,26.1666667 C34,26.6666667 33.3333333,27.1666667 32.5,27.5 C31.6666667,27.8333333 30.8333333,28 29.8333333,28 C28.8333333,28 28,27.8333333 27.3333333,27.5 C26.6666667,27.1666667 26,26.6666667 25.6666667,26.1666667 C25.3333333,25.6666667 24.8333333,25 24.6666667,24.1666667 C24.5,23.5 24.5,22.6666667 24.5,21.8333333 C24.6666667,21 24.8333333,20.3333333 25.3333333,19.5 C25.6666667,18.8333333 26.1666667,18.1666667 26.8333333,17.5 C27.5,17 28.1666667,16.5 29,16.1666667 C29.8333333,15.8333333 30.6666667,15.6666667 31.6666667,15.6666667 C32.6666667,15.6666667 33.5,15.8333333 34.1666667,16.1666667 C34.8333333,16.5 35.5,17 35.8333333,17.5 C36.3333333,18 36.6666667,18.6666667 36.8333333,19.5 C36.8333333,20.1666667 36.8333333,21 36.8333333,21.8333333 Z M56.1666667,34.1666667 C55.8333333,34.1666667 55.5,34.1666667 55.3333333,34.1666667 C55,34.1666667 54.6666667,34.1666667 54.1666667,34 C51.5,33.6666667 49.1666667,32.5 47.3333333,30.8333333 C44.6666667,28.5 43,25 43,21.1666667 C43,14 49,8.16666667 56.1666667,8.16666667 C63.3333333,8.16666667 69.3333333,14 69.3333333,21.1666667 C69.3333333,28.3333333 63.5,34.1666667 56.1666667,34.1666667 Z" id="Shape" fill="#FFFFFF" fill-rule="nonzero"></path>
                    <path d="M95.6666667,11.8333333 C94.3333333,11.8333333 93,12 91.5,12.5 C90,13 88.8333333,13.6666667 87.6666667,14.5 L89,16.1666667 C91,14.6666667 93.1666667,14 95.5,14 C97.1666667,14 98.3333333,14.3333333 99.3333333,15.1666667 C100.333333,15.8333333 100.666667,17.1666667 100.333333,18.8333333 L100.166667,20 L97.1666667,20 C96.1666667,20 95,20 93.8333333,20.1666667 C92.5,20.3333333 91.3333333,20.5 90.1666667,21 C89,21.5 88,22.1666667 87,23 C86,23.8333333 85.5,25 85.3333333,26.5 C85.1666667,27.5 85.3333333,28.5 85.5,29.1666667 C85.6666667,29.8333333 86.3333333,30.5 86.8333333,31 C87.5,31.5 88.1666667,31.8333333 89,32 C89.8333333,32.1666667 90.6666667,32.3333333 91.5,32.3333333 C93.1666667,32.3333333 94.6666667,32 95.8333333,31.5 C97,31 98,30 99,28.6666667 L99.1666667,28.6666667 C99,29.1666667 99,29.8333333 99,30.3333333 C99,30.8333333 99,31.3333333 99,31.8333333 L101.333333,31.8333333 C101.333333,31.3333333 101.333333,30.6666667 101.333333,30.1666667 C101.333333,29.6666667 101.333333,29 101.5,28.3333333 C101.5,27.6666667 101.666667,27 101.666667,26.1666667 C101.833333,25.3333333 101.833333,24.5 102,23.6666667 L102.666667,18.8333333 C103,16.3333333 102.5,14.5 101.333333,13.5 C100,12.5 98.1666667,11.8333333 95.6666667,11.8333333 Z M99.6666667,23.5 C99.5,24.3333333 99.3333333,25.1666667 99,26 C98.6666667,26.8333333 98.1666667,27.5 97.5,28.1666667 C96.8333333,28.8333333 96.1666667,29.3333333 95.1666667,29.6666667 C94.1666667,30 93,30.3333333 91.6666667,30.3333333 C91.1666667,30.3333333 90.6666667,30.3333333 90,30.1666667 C89.5,30 89,29.8333333 88.6666667,29.5 C88.3333333,29.1666667 88,28.8333333 87.8333333,28.3333333 C87.6666667,27.8333333 87.5,27.3333333 87.6666667,26.6666667 C87.8333333,25.8333333 88.1666667,25.1666667 88.6666667,24.5 C89.3333333,24 90,23.5 90.8333333,23.1666667 C91.6666667,22.8333333 92.6666667,22.6666667 93.6666667,22.5 C94.6666667,22.3333333 95.8333333,22.3333333 96.8333333,22.3333333 L99.6666667,22.3333333 L99.6666667,23.5 L99.6666667,23.5 Z" id="Shape" fill="#FFFFFF" fill-rule="nonzero"></path>
                    <polygon id="Path" fill="#FFFFFF" points="105.833333 32 108.5 32 113 0 110.333333 0"></polygon>
                    <polygon id="Path" fill="#FFFFFF" points="129.333333 21.3333333 140.666667 12.5 136.833333 12.5 125.833333 21.3333333 128.833333 0 126.166667 0 121.666667 32 124.333333 32 125.833333 21.6666667 135.333333 32 139.333333 32"></polygon>
                    <polygon id="Path" fill="#FFFFFF" points="114 32 116.666667 32 119.5 12.5 116.833333 12.5"></polygon>
                    <path d="M140.5,26.1666667 C140.833333,27.5 141.333333,28.5 142.166667,29.5 C143,30.5 143.833333,31.1666667 145,31.6666667 C146.166667,32.1666667 147.5,32.5 149,32.5 C150.833333,32.5 152.5,32.1666667 154,31.5 C155.5,30.8333333 157,29.8333333 158.166667,28.3333333 L156.5,26.8333333 C155.666667,27.8333333 154.666667,28.8333333 153.333333,29.3333333 C152,29.8333333 150.666667,30.3333333 149.333333,30.3333333 C147.833333,30.3333333 146.666667,30 145.666667,29.5 C144.833333,29 144.166667,28.3333333 143.666667,27.5 C143.166667,26.6666667 143,25.8333333 142.833333,25 C142.666667,24.1666667 142.666667,23.5 142.833333,23 L159.5,23 L159.833333,21.1666667 C160,19.8333333 160,18.8333333 159.833333,17.6666667 C159.666667,16.5 159.166667,15.6666667 158.5,14.6666667 C157.833333,13.8333333 157,13.1666667 155.833333,12.6666667 C154.666667,12.1666667 153.5,11.8333333 151.833333,11.8333333 C150.333333,11.8333333 149,12.1666667 147.666667,12.6666667 C146.333333,13.1666667 145.166667,13.8333333 144.166667,14.8333333 C143.166667,15.8333333 142.333333,16.8333333 141.666667,18 C141,19.1666667 140.5,20.6666667 140.333333,22 C140.166667,23.5 140.166667,24.8333333 140.5,26.1666667 Z M143.666667,19 C144,18.3333333 144.5,17.6666667 145.166667,16.8333333 C145.833333,16.1666667 146.666667,15.5 147.666667,14.8333333 C148.666667,14.3333333 149.833333,14 151.333333,14 C152.333333,14 153.166667,14.1666667 154,14.5 C154.833333,14.8333333 155.5,15.3333333 156,15.8333333 C156.5,16.3333333 157,17.1666667 157.166667,17.8333333 C157.333333,18.8333333 157.5,19.6666667 157.333333,20.5 L143.166667,20.5 C143.166667,20.1666667 143.333333,19.8333333 143.666667,19 Z" id="Shape" fill="#FFFFFF" fill-rule="nonzero"></path>
                    <path d="M52.1666667,27.3333333 L63.1666667,21.1666667 L52.1666667,15 C52.1666667,14.8333333 52.1666667,27.3333333 52.1666667,27.3333333 Z" id="Path" fill="#FFFFFF" fill-rule="nonzero"></path>
                    <path d="M17,22.8333333 C16.5,22 16,21.5 15.1666667,21 C14.3333333,20.5 13.5,20.1666667 12.6666667,20 C11.6666667,19.8333333 10.8333333,19.6666667 10,19.3333333 C9.16666667,19.1666667 8.5,18.8333333 8,18.6666667 C7.5,18.3333333 7.33333333,18 7.33333333,17.3333333 C7.33333333,17 7.5,16.6666667 7.66666667,16.3333333 C7.83333333,16 8.16666667,15.8333333 8.5,15.6666667 C8.83333333,15.5 9.16666667,15.3333333 9.5,15.3333333 C9.83333333,15.1666667 10.1666667,15.1666667 10.5,15.1666667 C12.1666667,15.1666667 13.5,15.8333333 14.1666667,17.1666667 L18,14.1666667 C17.3333333,13 16.3333333,12.1666667 15.1666667,11.8333333 C13.8333333,11.3333333 12.5,11.1666667 11.1666667,11.1666667 C10.1666667,11.1666667 9.16666667,11.3333333 8,11.5 C7,11.8333333 6,12.1666667 5.16666667,12.6666667 C4.33333333,13.1666667 3.5,13.8333333 3,14.6666667 C2.33333333,15.5 2,16.5 1.83333333,17.6666667 C1.66666667,19 1.83333333,20 2.16666667,20.6666667 C2.66666667,21.3333333 3.16666667,22 4,22.3333333 C4.83333333,22.6666667 5.66666667,23 6.5,23.1666667 C7.5,23.3333333 8.33333333,23.5 9.16666667,23.8333333 C10,24 10.6666667,24.3333333 11.1666667,24.6666667 C11.6666667,25 11.8333333,25.5 11.6666667,26.1666667 C11.6666667,26.5 11.5,26.8333333 11.1666667,27.1666667 C10.8333333,27.5 10.6666667,27.6666667 10.1666667,27.8333333 C9.83333333,28 9.33333333,28.1666667 9,28.3333333 C8.66666667,28.5 8.16666667,28.5 7.83333333,28.5 C6.66666667,28.5 5.83333333,28.3333333 5.16666667,27.8333333 C4.5,27.3333333 3.83333333,26.8333333 3.33333333,26 L0,29.3333333 C0.833333333,30.5 2,31.3333333 3.33333333,31.8333333 C4.66666667,32.3333333 6,32.5 7.66666667,32.5 C8.66666667,32.5 9.83333333,32.3333333 10.8333333,32.1666667 C12,32 13,31.5 13.8333333,31 C14.8333333,30.5 15.5,29.8333333 16.1666667,29 C16.8333333,28.1666667 17.1666667,27.1666667 17.3333333,26 C17.6666667,24.6666667 17.5,23.5 17,22.8333333 Z" id="Path" fill="#FFFFFF"></path>
                    <path d="M119.5,2.66666667 C119,2.66666667 118.5,2.83333333 118,3.16666667 C117.666667,3.5 117.333333,4 117.166667,4.5 C117.166667,5 117.166667,5.5 117.5,5.83333333 C117.833333,6.16666667 118.166667,6.33333333 118.833333,6.33333333 C119.5,6.33333333 119.833333,6.16666667 120.333333,5.83333333 C120.833333,5.5 121,5 121,4.5 C121.166667,4 121,3.5 120.666667,3.16666667 C120.5,3 120,2.66666667 119.5,2.66666667 Z" id="Path" fill="#FFFFFF"></path>
                </g>
            </g>
        </g>
    </g>
</svg>